<svg width="20" height="20" viewBox="0 0 20 20" fill="none" xmlns="http://www.w3.org/2000/svg">
<g clip-path="url(#clip0_563_36)">
<path d="M19.5834 9.58333C19.8167 9.58333 20 9.76666 20 9.99999C20 10.2333 19.8167 10.4167 19.5834 10.4167H19.1667V9.58333H19.5834Z" fill="#515863"/>
<path d="M10.4167 9.58333H19.1667V10.4167H10.4167V9.58333Z" fill="#515863"/>
<path d="M17.9167 20H10C10.2333 20 10.4167 19.8167 10.4167 19.5833V19.1667H17.9167C18.6083 19.1667 19.1667 18.6083 19.1667 17.9167V10.4167H19.5833C19.8167 10.4167 20 10.2333 20 10V17.9167C20 19.0667 19.0667 20 17.9167 20Z" fill="#515863"/>
<path d="M20 2.08333V10C20 9.76667 19.8167 9.58333 19.5833 9.58333H19.1667V2.08333C19.1667 1.39167 18.6083 0.833333 17.9167 0.833333H10.4167V0.416667C10.4167 0.183333 10.2333 0 10 0H17.9167C19.0667 0 20 0.933333 20 2.08333Z" fill="#515863"/>
<path d="M16.6667 5C16.9 5 17.0834 5.18333 17.0834 5.41667C17.0834 5.65 16.9 5.83333 16.6667 5.83333H13.3334C13.1 5.83333 12.9167 5.65 12.9167 5.41667C12.9167 5.18333 13.1 5 13.3334 5H16.6667Z" fill="#515863"/>
<path d="M16.6667 13.3333C16.9 13.3333 17.0834 13.5167 17.0834 13.75C17.0834 13.9833 16.9 14.1667 16.6667 14.1667H13.3334C13.1 14.1667 12.9167 13.9833 12.9167 13.75C12.9167 13.5167 13.1 13.3333 13.3334 13.3333H16.6667Z" fill="#515863"/>
<path d="M16.6667 15.8333C16.9 15.8333 17.0834 16.0167 17.0834 16.25C17.0834 16.4833 16.9 16.6667 16.6667 16.6667H13.3334C13.1 16.6667 12.9167 16.4833 12.9167 16.25C12.9167 16.0167 13.1 15.8333 13.3334 15.8333H16.6667Z" fill="#515863"/>
<path d="M10.4166 19.1667V19.5833C10.4166 19.8167 10.2333 20 9.99998 20C9.76665 20 9.58331 19.8167 9.58331 19.5833V19.1667H10.4166Z" fill="#515863"/>
<path d="M9.58331 10.4167H10.4166V19.1667H9.58331V10.4167Z" fill="#515863"/>
<path d="M9.58331 9.58333H10.4166V10.4167H9.58331V9.58333Z" fill="#515863"/>
<path d="M9.58331 0.833328H10.4166V9.58333H9.58331V0.833328Z" fill="#515863"/>
<path d="M10.4166 0.416667V0.833333H9.58331V0.416667C9.58331 0.183333 9.76665 0 9.99998 0C10.2333 0 10.4166 0.183333 10.4166 0.416667Z" fill="#515863"/>
<path d="M0.833313 9.58333H9.58331V10.4167H0.833313V9.58333Z" fill="#515863"/>
<path d="M6.66669 5C6.90002 5 7.08335 5.18333 7.08335 5.41667C7.08335 5.65 6.90002 5.83333 6.66669 5.83333H5.41669V5H6.66669Z" fill="#515863"/>
<path d="M6.54167 15.9583C6.70833 16.1167 6.70833 16.3833 6.54167 16.5417C6.46667 16.625 6.35833 16.6667 6.25 16.6667C6.14167 16.6667 6.03333 16.625 5.95833 16.5417L5 15.5833L5.58333 15L6.54167 15.9583Z" fill="#515863"/>
<path d="M5.95833 13.4583C6.11667 13.2917 6.38333 13.2917 6.54167 13.4583C6.70833 13.6167 6.70833 13.8833 6.54167 14.0417L5.58333 15L5 14.4167L5.95833 13.4583Z" fill="#515863"/>
<path d="M4.41425 14.9992L4.99761 14.4158L5.58097 14.9992L4.99761 15.5825L4.41425 14.9992Z" fill="#515863"/>
<path d="M5.41665 5.83333V7.08333C5.41665 7.31666 5.23331 7.49999 4.99998 7.49999C4.76665 7.49999 4.58331 7.31666 4.58331 7.08333V5.83333H5.41665Z" fill="#515863"/>
<path d="M4.58331 5H5.41665V5.83333H4.58331V5Z" fill="#515863"/>
<path d="M5.41665 3.74999V4.99999H4.58331V3.74999C4.58331 3.51666 4.76665 3.33333 4.99998 3.33333C5.23331 3.33333 5.41665 3.51666 5.41665 3.74999Z" fill="#515863"/>
<path d="M4.99998 14.4167L4.41665 15L3.45831 14.0417C3.29165 13.8833 3.29165 13.6167 3.45831 13.4583C3.61665 13.2917 3.88331 13.2917 4.04165 13.4583L4.99998 14.4167Z" fill="#515863"/>
<path d="M4.58335 5V5.83333H3.33335C3.10002 5.83333 2.91669 5.65 2.91669 5.41667C2.91669 5.18333 3.10002 5 3.33335 5H4.58335Z" fill="#515863"/>
<path d="M4.04165 16.5417C3.96665 16.625 3.85831 16.6667 3.74998 16.6667C3.64165 16.6667 3.53331 16.625 3.45831 16.5417C3.29165 16.3833 3.29165 16.1167 3.45831 15.9583L4.41665 15L4.99998 15.5833L4.04165 16.5417Z" fill="#515863"/>
<path d="M0.833333 9.58333V10.4167H0.416667C0.183333 10.4167 0 10.2333 0 9.99999C0 9.76666 0.183333 9.58333 0.416667 9.58333H0.833333Z" fill="#515863"/>
<path d="M0 2.08333C0 0.933333 0.933333 0 2.08333 0H10C9.76667 0 9.58333 0.183333 9.58333 0.416667V0.833333H2.08333C1.39167 0.833333 0.833333 1.39167 0.833333 2.08333V9.58333H0.416667C0.183333 9.58333 0 9.76667 0 10V2.08333Z" fill="#515863"/>
<path d="M0.833333 17.9167C0.833333 18.6083 1.39167 19.1667 2.08333 19.1667H9.58333V19.5833C9.58333 19.8167 9.76667 20 10 20H2.08333C0.933333 20 0 19.0667 0 17.9167V10C0 10.2333 0.183333 10.4167 0.416667 10.4167H0.833333V17.9167Z" fill="#515863"/>
</g>
<defs>
<clipPath id="clip0_563_36">
<rect width="20" height="20" fill="white"/>
</clipPath>
</defs>
</svg>
