<svg width="20" height="20" viewBox="0 0 20 20" fill="none" xmlns="http://www.w3.org/2000/svg">
<g clip-path="url(#clip0_563_25)">
<path d="M7.91667 6.66667H1.25C0.560833 6.66667 0 6.10583 0 5.41667V1.25C0 0.560833 0.560833 0 1.25 0H7.91667C8.60583 0 9.16667 0.560833 9.16667 1.25V5.41667C9.16667 6.10583 8.60583 6.66667 7.91667 6.66667ZM1.25 0.833333C1.02083 0.833333 0.833333 1.02 0.833333 1.25V5.41667C0.833333 5.64667 1.02083 5.83333 1.25 5.83333H7.91667C8.14583 5.83333 8.33333 5.64667 8.33333 5.41667V1.25C8.33333 1.02 8.14583 0.833333 7.91667 0.833333H1.25Z" fill="#515863"/>
<path d="M7.91667 20H1.25C0.560833 20 0 19.4392 0 18.75V9.58333C0 8.89416 0.560833 8.33333 1.25 8.33333H7.91667C8.60583 8.33333 9.16667 8.89416 9.16667 9.58333V18.75C9.16667 19.4392 8.60583 20 7.91667 20ZM1.25 9.16666C1.02083 9.16666 0.833333 9.35333 0.833333 9.58333V18.75C0.833333 18.98 1.02083 19.1667 1.25 19.1667H7.91667C8.14583 19.1667 8.33333 18.98 8.33333 18.75V9.58333C8.33333 9.35333 8.14583 9.16666 7.91667 9.16666H1.25Z" fill="#515863"/>
<path d="M18.75 20H12.0833C11.3941 20 10.8333 19.4392 10.8333 18.75V14.5833C10.8333 13.8942 11.3941 13.3333 12.0833 13.3333H18.75C19.4391 13.3333 20 13.8942 20 14.5833V18.75C20 19.4392 19.4391 20 18.75 20ZM12.0833 14.1667C11.8541 14.1667 11.6666 14.3533 11.6666 14.5833V18.75C11.6666 18.98 11.8541 19.1667 12.0833 19.1667H18.75C18.9791 19.1667 19.1666 18.98 19.1666 18.75V14.5833C19.1666 14.3533 18.9791 14.1667 18.75 14.1667H12.0833Z" fill="#515863"/>
<path d="M18.75 11.6667H12.0833C11.3941 11.6667 10.8333 11.1058 10.8333 10.4167V1.25C10.8333 0.560833 11.3941 0 12.0833 0H18.75C19.4391 0 20 0.560833 20 1.25V10.4167C20 11.1058 19.4391 11.6667 18.75 11.6667ZM12.0833 0.833333C11.8541 0.833333 11.6666 1.02 11.6666 1.25V10.4167C11.6666 10.6467 11.8541 10.8333 12.0833 10.8333H18.75C18.9791 10.8333 19.1666 10.6467 19.1666 10.4167V1.25C19.1666 1.02 18.9791 0.833333 18.75 0.833333H12.0833Z" fill="#515863"/>
</g>
<defs>
<clipPath id="clip0_563_25">
<rect width="20" height="20" fill="white"/>
</clipPath>
</defs>
</svg>
