<svg width="26" height="19" viewBox="0 0 26 19" fill="none" xmlns="http://www.w3.org/2000/svg">
<path d="M23.2201 0.331076L8.8253 15.8763C8.72852 15.9813 8.61351 16.0645 8.48686 16.1213C8.36021 16.1782 8.22442 16.2074 8.08728 16.2074C7.95014 16.2074 7.81435 16.1782 7.6877 16.1213C7.56105 16.0645 7.44604 15.9813 7.34926 15.8763L1.78259 9.8587C1.68581 9.75376 1.5708 9.6705 1.44415 9.61369C1.3175 9.55687 1.18171 9.52763 1.04457 9.52763C0.907433 9.52763 0.771643 9.55687 0.644995 9.61369C0.518346 9.6705 0.403332 9.75376 0.306551 9.8587C0.209388 9.96322 0.132292 10.0874 0.0796857 10.2242C0.0270799 10.361 0 10.5077 0 10.6558C0 10.8039 0.0270799 10.9505 0.0796857 11.0873C0.132292 11.2241 0.209388 11.3483 0.306551 11.4528L5.8753 17.466C6.46275 18.0992 7.25884 18.4549 8.08884 18.4549C8.91885 18.4549 9.71494 18.0992 10.3024 17.466L24.6961 1.92408C24.7931 1.81957 24.8701 1.69543 24.9226 1.55875C24.9751 1.42207 25.0022 1.27555 25.0022 1.12758C25.0022 0.979599 24.9751 0.833076 24.9226 0.6964C24.8701 0.559723 24.7931 0.435579 24.6961 0.331076C24.5994 0.22614 24.4843 0.142875 24.3577 0.0860608C24.231 0.0292465 24.0953 0 23.9581 0C23.821 0 23.6852 0.0292465 23.5585 0.0860608C23.4319 0.142875 23.3169 0.22614 23.2201 0.331076Z" fill="#66B700"/>
</svg>
