<svg width="20" height="21" viewBox="0 0 20 21" fill="none" xmlns="http://www.w3.org/2000/svg">
<path d="M8.78471 2.75413e-07C8.68165 5.48667e-05 8.58195 0.0367148 8.5034 0.103443C8.42485 0.170171 8.37256 0.26263 8.35584 0.364331L7.93291 2.95372C7.42435 3.10165 6.93941 3.30127 6.48238 3.54989L4.34565 2.02378C4.26199 1.96404 4.15988 1.93587 4.05742 1.94427C3.95497 1.95266 3.8588 1.99708 3.78599 2.06964L2.09427 3.75966C2.02197 3.832 1.97749 3.92751 1.96864 4.0294C1.95979 4.13129 1.98713 4.23304 2.04586 4.31677L3.54905 6.46709C3.29659 6.92679 3.09255 7.41447 2.94098 7.92781L0.362633 8.35669C0.261243 8.37376 0.169183 8.42622 0.102796 8.50473C0.0364083 8.58325 -1.16517e-05 8.68274 7.16548e-07 8.78556V11.1771C-0.000184739 11.2793 0.0356345 11.3783 0.101171 11.4567C0.166708 11.5351 0.257775 11.588 0.358387 11.6059L2.93843 12.0628C3.08918 12.5753 3.29192 13.0633 3.5448 13.5236L2.02293 15.6527C1.96319 15.7363 1.93502 15.8384 1.94342 15.9409C1.95181 16.0433 1.99623 16.1395 2.06879 16.2123L3.75966 17.904C3.83185 17.9762 3.92714 18.0207 4.02884 18.0297C4.13054 18.0388 4.23217 18.0117 4.31592 17.9533L6.47049 16.445C6.92887 16.6951 7.415 16.8962 7.92527 17.0454L8.35584 19.6382C8.37274 19.7398 8.42511 19.832 8.50364 19.8986C8.58217 19.9651 8.68177 20.0017 8.78471 20.0017H11.1762C11.2785 20.0018 11.3777 19.9659 11.4561 19.9002C11.5345 19.8345 11.5873 19.7432 11.6051 19.6425L12.0662 17.0395C12.5744 16.888 13.0582 16.6839 13.5142 16.4323L15.6832 17.9541C15.767 18.0129 15.8687 18.0402 15.9706 18.0314C16.0725 18.0225 16.168 17.978 16.2403 17.9057L17.9312 16.2132C18.0041 16.1401 18.0486 16.0436 18.0569 15.9408C18.0651 15.8379 18.0365 15.7355 17.9762 15.6518L16.4297 13.5049C16.677 13.0511 16.8762 12.5701 17.0242 12.0654L19.6408 11.6068C19.7415 11.589 19.8328 11.5362 19.8985 11.4578C19.9642 11.3793 20.0002 11.2802 20 11.1779V8.78641C19.9999 8.68334 19.9633 8.58365 19.8966 8.5051C19.8298 8.42655 19.7374 8.37425 19.6357 8.35754L17.0234 7.93036C16.8744 7.42621 16.6746 6.94612 16.4272 6.49257L17.9524 4.31932C18.0112 4.23559 18.0385 4.13384 18.0297 4.03195C18.0208 3.93006 17.9763 3.83455 17.904 3.76221L16.2123 2.07134C16.1393 1.99847 16.0427 1.95393 15.9399 1.94569C15.8371 1.93744 15.7347 1.96602 15.651 2.02633L13.51 3.56603C13.0538 3.31542 12.5697 3.11243 12.0603 2.96221L11.6051 0.360085C11.5875 0.259161 11.5348 0.167698 11.4563 0.101821C11.3779 0.0359446 11.2787 -0.000114976 11.1762 2.75413e-07H8.78471ZM9.15499 0.869639H10.811L11.2442 3.34183C11.2586 3.42474 11.2967 3.50169 11.354 3.56335C11.4113 3.625 11.4852 3.66871 11.5669 3.68917C12.2028 3.84765 12.8001 4.09885 13.3452 4.42887C13.4181 4.47304 13.5024 4.49481 13.5875 4.49149C13.6727 4.48817 13.755 4.4599 13.8242 4.41019L15.859 2.94777L17.0301 4.1189L15.5813 6.18344C15.5329 6.25231 15.5056 6.33375 15.5026 6.41786C15.4995 6.50198 15.521 6.58517 15.5643 6.65732C15.8911 7.20125 16.1389 7.79474 16.2972 8.42718C16.3179 8.50955 16.3621 8.58408 16.4246 8.64158C16.4871 8.69907 16.565 8.73702 16.6488 8.75074L19.1304 9.15669V10.8127L16.6437 11.2493C16.5608 11.2639 16.4838 11.3024 16.4223 11.36C16.3608 11.4176 16.3174 11.4918 16.2972 11.5737C16.1408 12.2053 15.8928 12.7988 15.566 13.3427C15.5222 13.4155 15.5006 13.4997 15.5041 13.5847C15.5076 13.6697 15.5359 13.7518 15.5856 13.8208L17.0548 15.8599L15.8837 17.0318L13.8225 15.5856C13.7533 15.5371 13.6715 15.5098 13.587 15.5071C13.5025 15.5044 13.4191 15.5263 13.3469 15.5703C12.8045 15.9003 12.2066 16.1527 11.5728 16.3134C11.4916 16.3339 11.418 16.3774 11.3609 16.4387C11.3038 16.5 11.2656 16.5765 11.251 16.659L10.8119 19.1321H9.15329L8.74395 16.6701C8.73002 16.5863 8.69187 16.5085 8.63422 16.4461C8.57658 16.3838 8.50194 16.3397 8.41953 16.3193C7.78323 16.1625 7.18328 15.9117 6.6344 15.5822C6.56233 15.539 6.47931 15.5176 6.39536 15.5207C6.31142 15.5237 6.23014 15.5509 6.16136 15.5991L4.11635 17.0318L2.94437 15.8582L4.38981 13.8378C4.43921 13.7686 4.46723 13.6864 4.4704 13.6014C4.47357 13.5164 4.45175 13.4324 4.40764 13.3597C4.07456 12.8093 3.82266 12.2094 3.6637 11.5703C3.64336 11.4889 3.5999 11.4151 3.53857 11.3578C3.47724 11.3006 3.40065 11.2623 3.31805 11.2476L0.86964 10.8127V9.15414L3.31635 8.74734C3.39999 8.73347 3.47775 8.69546 3.54007 8.63797C3.60238 8.58048 3.64654 8.50603 3.66709 8.42378C3.82742 7.78246 4.0792 7.18267 4.41104 6.63355C4.4548 6.56145 4.47665 6.47819 4.47394 6.39391C4.47122 6.30962 4.44406 6.22794 4.39575 6.15881L2.9673 4.1172L4.14013 2.94522L6.1673 4.39405C6.23627 4.44323 6.31809 4.47119 6.40273 4.47451C6.48737 4.47783 6.57113 4.45636 6.64374 4.41274C7.18972 4.08482 7.79106 3.83601 8.42803 3.67983C8.51083 3.65945 8.5858 3.61517 8.64364 3.5525C8.70147 3.48984 8.7396 3.41155 8.75329 3.32739L9.15499 0.869639ZM10 6.52229C8.084 6.52229 6.52144 8.08485 6.52144 10.0008C6.52144 11.9169 8.084 13.4794 10 13.4794C11.916 13.4794 13.4786 11.9169 13.4786 10.0008C13.4786 8.08485 11.916 6.52229 10 6.52229ZM10 7.39193C11.446 7.39193 12.6089 8.55483 12.6089 10.0008C12.6089 11.4469 11.446 12.6098 10 12.6098C8.55399 12.6098 7.39108 11.4469 7.39108 10.0008C7.39108 8.55483 8.55399 7.39193 10 7.39193Z" fill="#515863"/>
</svg>
