<svg width="216" height="54" viewBox="0 0 216 54" fill="none" xmlns="http://www.w3.org/2000/svg">
<g clip-path="url(#clip0_525_9764)">
<path d="M23.7018 51.8537C8.38644 51.8537 0.614458 46.6534 0.785898 34.9954H12.4439C12.7296 39.0528 16.1584 41.6816 23.7018 41.6816C30.6737 41.7387 34.274 39.51 34.274 36.2526C34.274 33.5096 32.2167 31.8523 26.8449 30.9951L20.8445 29.9665C11.701 28.4235 2.04313 26.4234 2.04313 15.394C2.04313 6.19334 9.75797 0.650088 23.759 0.650088C36.7313 0.650088 45.7034 4.82182 45.7034 17.337H34.1597C33.4739 13.3939 30.3309 10.7651 23.5304 10.7651C17.4157 10.7651 14.444 12.8224 14.444 15.9655C14.444 18.4228 16.2727 20.1943 20.7302 20.9373L25.9306 21.8516C35.1884 23.5089 47.0749 24.6518 47.0749 36.6527C47.0749 46.5391 39.1315 51.9109 23.7018 51.8537ZM74.3983 51.8537C59.0258 51.8537 50.6823 44.8818 50.6823 29.9665V2.25021H63.6547V29.6236C63.6547 36.7098 67.0835 40.9958 74.3983 40.9958C81.7131 40.9958 85.2562 36.7098 85.2562 29.6236V2.25021H98.1143V29.9093C98.1143 44.8818 89.7708 51.8537 74.3983 51.8537Z" fill="#1A2421"/>
<path d="M102.717 50.2536V2.25021H119.118L129.633 33.7953H130.605L141.12 2.25021H157.521V50.2536H145.177V23.9089H144.092L135.062 50.2536H125.176L116.147 23.9089H115.061V50.2536H102.717ZM201.722 50.2536L199.036 42.7674H176.406L173.72 50.2536H160.404L178.691 2.25021H196.75L215.037 50.2536H201.722ZM179.834 33.1096H195.607L188.921 14.3654H186.578L179.834 33.1096Z" fill="#66B700"/>
</g>
<defs>
<clipPath id="clip0_525_9764">
<rect width="216" height="53.0226" fill="white"/>
</clipPath>
</defs>
</svg>
