<svg width="50" height="50" viewBox="0 0 50 50" fill="none" xmlns="http://www.w3.org/2000/svg">
<path d="M25 2C12.317 2 2 12.317 2 25C2 37.683 12.317 48 25 48C37.683 48 48 37.683 48 25C48 12.317 37.683 2 25 2ZM23.4 14.7C23.4 14.5 23.5 14.3 23.8 14.3H26.1C26.3 14.3 26.5 14.4 26.5 14.7V28.2C26.5 28.4 26.4 28.6 26.1 28.6H23.8C23.6 28.6 23.4 28.5 23.4 28.2V14.7ZM26.6 35.3C26.6 35.5 26.5 35.7 26.2 35.7H23.8C23.6 35.7 23.4 35.6 23.4 35.3V32.7C23.4 32.5 23.5 32.3 23.8 32.3H26.2C26.4 32.3 26.6 32.4 26.6 32.7V35.3Z" fill="black"/>
</svg>
